<svg preserveAspectRatio="none" width="100%" height="100%" overflow="visible" style="display: block;" viewBox="0 0 32 32.1532" fill="none" xmlns="http://www.w3.org/2000/svg">
<g id="Group">
<path id="Vector" fill-rule="evenodd" clip-rule="evenodd" d="M15.07 0C15.6915 0 16.3126 0 16.934 0C20.2479 0.272943 23.0553 1.33996 24.975 2.83552C19.5987 2.85577 17.5695 6.23846 17.3599 11.4488C12.3785 11.1084 9.91325 13.7873 9.21245 18.1361C9.11293 18.753 8.92605 19.5757 9.05277 20.0621C9.13949 20.3945 9.77821 20.8446 10.1177 21.1857C12.5516 23.6306 15.4169 26.407 17.7859 28.622C17.7756 23.1825 20.6255 19.2696 26.093 20.0084C26.1116 19.5284 26.0873 19.0253 26.1465 18.5106C26.5442 15.0276 28.1705 12.2664 31.365 11.5559C33.0479 17.1092 31.1241 22.733 28.6498 25.9472C25.9986 29.3901 22.0259 31.7716 16.5084 32.1532C16.1712 32.1532 15.8336 32.1532 15.4966 32.1532C10.8342 31.8752 7.29726 30.0684 4.79295 27.5521C2.28415 25.032 0.352319 21.6271 0 17.0128C0 16.3885 0 15.7648 0 15.1401C0.277439 10.8457 2.27679 7.02354 4.68607 4.65417C7.2531 2.12985 10.6713 0.357494 15.07 0Z" fill="#0a005a"/>
</g>
<defs>
</defs>
</svg>
