<svg width="83" height="41" viewBox="0 0 83 41" fill="none" xmlns="http://www.w3.org/2000/svg">
<path d="M80.0033 33.6007C79.3584 33.5475 73.651 32.8931 72.1141 26.3273C71.3977 23.2711 71.6466 19.118 71.6508 19.0505C71.6684 18.7811 71.6188 15.9242 71.2422 14.6153C69.4891 8.503 60.3841 5.35818 49.6101 7.18309C47.1079 7.60701 42.9258 8.92861 42.9258 8.92861C42.9258 8.92861 43.6791 13.7227 41.0819 16.3456C39.6156 17.826 36.6761 18.4467 36.5508 18.4712C36.5029 18.4804 36.455 18.4847 36.4079 18.4847C36.0556 18.4847 35.742 18.2347 35.6731 17.875C35.594 17.4662 35.8597 17.0719 36.2658 16.9916C36.9931 16.8498 39.0455 16.2333 39.9973 15.3052C41.8798 13.4702 41.4191 9.30694 41.4191 9.30694L40.833 0.0135122L36.2179 3.66586C35.0921 3.23687 33.8536 2.99535 32.5487 2.99535C31.2833 2.99535 30.0775 3.21998 28.9795 3.62617L24.6779 0C24.6779 0 23.0804 7.303 23.3352 11.0854C23.4125 12.2356 23.6127 13.3334 24.1079 14.3256H9.07274C7.41552 14.3256 6.07193 15.6751 6.07193 17.3396C6.07193 19.004 7.41552 20.3535 9.07274 20.3535H9.39224L9.39392 23.712C6.57473 24.2271 4.81073 27.7097 2.85756 27.936C1.29452 28.2721 0.0661116 26.1415 0.0661116 26.1415C0.0661116 26.1415 -0.529173 29.7305 1.85281 31.4119C4.672 33.4023 7.26754 31.9726 9.08198 31.6922C13.8829 30.8233 17.1486 41 17.1486 41C17.1486 41 18.377 36.6822 17.8246 33.556L20.722 34.2299C20.722 34.2299 18.0045 26.5156 12.9623 24.26L12.9572 20.3526H29.7463C29.8043 21.1515 29.9523 21.9951 30.2297 22.9021C30.8637 24.9694 32.5865 26.6701 35.0021 27.9343V37.0006C35.0021 38.7655 36.4264 40.1961 38.1845 40.1961C39.9409 40.1961 41.3661 38.7655 41.3661 37.0006V29.9906C44.4358 30.5319 47.8722 30.624 51.3388 30.2076L45.9989 34.528C44.6301 35.6359 44.4148 37.6466 45.5171 39.0222C46.146 39.8051 47.0675 40.213 47.9966 40.213C48.697 40.213 49.4024 39.9816 49.991 39.5061L59.5357 31.7834C59.5837 31.7454 59.6181 31.7007 59.6627 31.6584V36.9508C59.6627 38.7157 61.0878 40.1462 62.8434 40.1462C64.6007 40.1462 66.0258 38.7157 66.0258 36.9508V28.6361C68.4373 37.145 75.8623 39.8718 79.5677 40.104C79.6375 40.1082 79.7056 40.1108 79.7737 40.1108C81.4604 40.1108 82.8679 38.7985 82.9915 37.085C83.1201 35.3015 81.7782 33.7468 80.0033 33.6007ZM11.9264 23.8884C11.4455 23.7559 10.946 23.679 10.4289 23.6587L10.4247 20.3535H11.923L11.9264 23.8884ZM30.2323 10.3406C29.8514 10.7468 29.214 10.7679 28.8079 10.3836C28.4035 10.0019 28.3842 9.36098 28.7651 8.95395C29.1459 8.54776 29.7841 8.52833 30.1885 8.91003C30.5946 9.29427 30.6131 9.93438 30.2323 10.3406ZM34.073 10.3836C33.6686 10.0019 33.6493 9.36098 34.0301 8.95395C34.411 8.54776 35.0492 8.52833 35.4536 8.91003C35.8597 9.29342 35.8782 9.93353 35.4973 10.3406C35.1164 10.7476 34.4791 10.7679 34.073 10.3836Z" fill="url(#paint0_linear_29_370)"/>
<defs>
<linearGradient id="paint0_linear_29_370" x1="10.7593" y1="28.7" x2="50.1762" y2="58.868" gradientUnits="userSpaceOnUse">
<stop stop-color="#E2A9C9"/>
<stop offset="0.0714286" stop-color="#DFABBE"/>
<stop offset="0.142857" stop-color="#DCAEB2"/>
<stop offset="0.214286" stop-color="#D9B0A6"/>
<stop offset="0.285714" stop-color="#D6B199"/>
<stop offset="0.357143" stop-color="#D3B38C"/>
<stop offset="0.428571" stop-color="#D0B57F"/>
<stop offset="0.5" stop-color="#CDB670"/>
<stop offset="0.571429" stop-color="#C4B57F"/>
<stop offset="0.642857" stop-color="#BBB38D"/>
<stop offset="0.714286" stop-color="#B1B299"/>
<stop offset="0.785714" stop-color="#A8B0A5"/>
<stop offset="0.857143" stop-color="#9EAEB1"/>
<stop offset="0.928571" stop-color="#95ACBC"/>
<stop offset="1" stop-color="#8BA9C6"/>
</linearGradient>
</defs>
</svg>
