<svg preserveAspectRatio="none" width="100%" height="100%" overflow="visible" style="display: block;" viewBox="0 0 54.1888 35.2657" fill="none" xmlns="http://www.w3.org/2000/svg">
<path id="Vector" d="M51.4674 29.4665C50.8816 29.4194 45.698 28.846 44.302 23.0879C43.6517 20.4079 43.8779 16.7649 43.8817 16.7066C43.8977 16.4702 43.8525 13.9651 43.5105 12.8171C41.9187 7.45649 33.6486 4.69889 23.8644 6.29889C21.592 6.67067 17.7934 7.82988 17.7934 7.82988C17.7934 7.82988 18.4779 12.0339 16.1189 14.3347C14.7874 15.633 12.1173 16.177 12.0031 16.199C11.9595 16.207 11.916 16.2107 11.8729 16.2107C11.5536 16.2107 11.2684 15.9914 11.205 15.6758C11.1333 15.3174 11.3743 14.9713 11.7439 14.9012C12.4046 14.7766 14.2684 14.2358 15.1327 13.4221C16.8425 11.813 16.4239 8.16207 16.4239 8.16207L15.8916 0.0117683L11.7003 3.21497C10.6782 2.83838 9.55361 2.62708 8.36775 2.62708C7.21829 2.62708 6.12344 2.82447 5.12622 3.1802L1.2195 0V6.04693C0.450626 7.12002 0 8.37391 0 9.72195C0 12.8893 2.44949 15.5699 5.82946 16.4814C5.71474 17.5599 5.83884 18.7528 6.26189 20.0853C6.83772 21.8982 8.40195 23.3901 10.5961 24.4985V32.4498C10.5961 33.9974 11.89 35.2524 13.4862 35.2524C15.0819 35.2524 16.3759 33.9974 16.3759 32.4498V26.3013C19.164 26.7757 22.2848 26.8565 25.4331 26.4917L20.5832 30.2801C19.3405 31.2516 19.1442 33.0158 20.1453 34.2215C20.7167 34.9084 21.5528 35.2657 22.3973 35.2657C23.0332 35.2657 23.6742 35.063 24.2086 34.6457L32.8775 27.8729C32.9211 27.8392 32.9525 27.8002 32.9928 27.7632V32.4044C32.9928 33.9525 34.2873 35.2069 35.8819 35.2069C37.4775 35.2069 38.7721 33.9525 38.7721 32.4044V25.1132C40.9618 32.575 47.7057 34.9667 51.0714 35.1705C51.1348 35.1748 51.1966 35.1769 51.2589 35.1769C52.7906 35.1769 54.0685 34.0263 54.1811 32.5231C54.298 30.9584 53.079 29.5949 51.4674 29.4665ZM6.26464 9.06772C5.91881 9.42452 5.34023 9.44218 4.97123 9.1057C4.60389 8.77083 4.58624 8.20861 4.93207 7.85234C5.2779 7.49554 5.85759 7.47896 6.22438 7.81383C6.59337 8.14977 6.61047 8.71092 6.26464 9.06772ZM9.75272 9.10517C9.38538 8.7703 9.36773 8.20808 9.71356 7.85181C10.0594 7.49501 10.6391 7.47842 11.0059 7.81329C11.3749 8.14977 11.3914 8.71092 11.0456 9.06772C10.7003 9.42399 10.1217 9.44164 9.75272 9.10517Z" fill="url(#paint0_linear_49_186)"/>
<defs>
<linearGradient id="paint0_linear_49_186" x1="2.46313" y1="24.3212" x2="37.2907" y2="39.4553" gradientUnits="userSpaceOnUse">
<stop stop-color="#8BA9C6"/>
<stop offset="0.0714286" stop-color="#95ACBC"/>
<stop offset="0.142857" stop-color="#9EAEB1"/>
<stop offset="0.214286" stop-color="#A8B0A5"/>
<stop offset="0.285714" stop-color="#B1B299"/>
<stop offset="0.357143" stop-color="#BBB38D"/>
<stop offset="0.428571" stop-color="#C4B57F"/>
<stop offset="0.5" stop-color="#CDB670"/>
<stop offset="0.571429" stop-color="#D0B57F"/>
<stop offset="0.642857" stop-color="#D3B38C"/>
<stop offset="0.714286" stop-color="#D6B199"/>
<stop offset="0.785714" stop-color="#D9B0A6"/>
<stop offset="0.857143" stop-color="#DCAEB2"/>
<stop offset="0.928571" stop-color="#DFABBE"/>
<stop offset="1" stop-color="#E2A9C9"/>
</linearGradient>
</defs>
</svg>
