<svg width="53" height="76" viewBox="0 0 53 76" fill="none" xmlns="http://www.w3.org/2000/svg">
<path d="M33.996 10.9763C35.0022 11.6269 35.9273 12.4759 36.7058 13.5125C37.5082 14.5808 38.0733 15.7428 38.4154 16.9269L44.2307 18.4692L37.0149 24.64C36.9866 24.6666 33.8928 27.5631 31.2516 27.1477C29.9097 26.9365 28.145 25.6338 27.5816 25.1251C27.2661 24.8415 26.7806 24.8665 26.4961 25.1807C26.2461 25.4572 26.2352 25.8675 26.4517 26.1557C26.4804 26.1939 26.5133 26.231 26.5506 26.2647C26.6497 26.3546 28.9627 28.3805 31.0702 28.6738C34.8063 29.1942 38.2507 25.6415 38.2507 25.6415C38.2507 25.6415 41.9001 28.2571 43.7841 30.0459C51.8972 37.7496 54.9334 47.1301 51.0286 52.3082C50.1936 53.4179 47.8968 55.2073 47.6649 55.3586C47.6078 55.3965 44.067 57.7357 42.0165 60.1934C37.6098 65.4719 40.5864 70.5448 40.9395 71.1064C41.9109 72.6489 41.4689 74.6993 39.9362 75.6864C38.463 76.6347 36.5277 76.2866 35.4906 74.9059C35.4485 74.85 35.4093 74.7927 35.3701 74.7326C33.2799 71.5561 30.9364 63.8068 36.3898 56.6225L29.6113 61.7137C28.1726 62.7943 26.1299 62.5032 25.0493 61.0645C23.97 59.6271 24.2591 57.5849 25.6983 56.5039L30.0125 53.2636C29.9504 53.2525 29.8932 53.2513 29.8324 53.2352L17.667 50.1493C16.9171 49.9592 16.295 49.5226 15.8644 48.9494C15.2928 48.1884 15.0584 47.1842 15.3095 46.1894C15.7525 44.4444 17.5255 43.3904 19.27 43.8328L26.0767 45.5599C23.6055 42.9761 21.567 40.1065 20.1197 37.2613L14.4055 41.5532C12.9669 42.6337 10.9247 42.3433 9.84413 40.9048C8.76308 39.4654 9.05326 37.4232 10.4919 36.3426L17.8834 30.791C17.4278 28.0392 17.7551 25.5881 19.0504 23.8029C19.6186 23.0208 20.2155 22.3822 20.8317 21.8458L8.11742 4.91786C7.09853 3.5613 7.37177 1.6357 8.72889 0.616268C10.0861 -0.403137 12.0123 -0.129458 13.0313 1.22715L14.0083 2.52804L16.7272 0.485917C17.4399 -0.0490544 18.4514 0.0935214 18.988 0.807982C19.524 1.5218 19.3797 2.53114 18.6661 3.06739L15.9472 5.10951L22.2783 13.5387C22.7826 12.5261 23.5043 11.6286 24.4441 10.9228C25.6969 9.98175 27.1685 9.51232 28.686 9.45634L34.3073 5.23427L33.996 10.9763ZM10.0306 10.0554C10.0306 10.0554 7.87101 11.758 6.56283 12.66C4.46006 14.1099 4.97145e-05 15.0756 4.97145e-05 15.0756C4.97145e-05 15.0756 1.88666 10.8811 4.01399 9.26641C5.59211 8.06818 7.48172 6.66186 7.48172 6.66186L10.0306 10.0554ZM30.432 15.2006C30.4953 14.6356 30.0861 14.1246 29.5204 14.0618C28.955 13.9994 28.445 14.4084 28.3824 14.9728C28.3189 15.5399 28.7276 16.0493 29.2932 16.1122C29.8581 16.1754 30.3687 15.7683 30.432 15.2006ZM33.6686 19.5115C33.7318 18.9465 33.324 18.4356 32.7584 18.3729C32.1928 18.3101 31.6831 18.7194 31.6204 19.2838C31.5574 19.8505 31.9654 20.3604 32.5303 20.4238C33.096 20.4866 33.6055 20.0794 33.6686 19.5115Z" fill="url(#paint0_linear_29_383)"/>
<defs>
<linearGradient id="paint0_linear_29_383" x1="6.04908" y1="15.4002" x2="6.81557" y2="63.3919" gradientUnits="userSpaceOnUse">
<stop stop-color="#E2A9C9"/>
<stop offset="0.0714286" stop-color="#DFABBE"/>
<stop offset="0.142857" stop-color="#DCAEB2"/>
<stop offset="0.214286" stop-color="#D9B0A6"/>
<stop offset="0.285714" stop-color="#D6B199"/>
<stop offset="0.357143" stop-color="#D3B38C"/>
<stop offset="0.428571" stop-color="#D0B57F"/>
<stop offset="0.5" stop-color="#CDB670"/>
<stop offset="0.571429" stop-color="#C4B57F"/>
<stop offset="0.642857" stop-color="#BBB38D"/>
<stop offset="0.714286" stop-color="#B1B299"/>
<stop offset="0.785714" stop-color="#A8B0A5"/>
<stop offset="0.857143" stop-color="#9EAEB1"/>
<stop offset="0.928571" stop-color="#95ACBC"/>
<stop offset="1" stop-color="#8BA9C6"/>
</linearGradient>
</defs>
</svg>
