<svg preserveAspectRatio="none" width="100%" height="100%" overflow="visible" style="display: block;" viewBox="0 0 23.9931 23.9931" fill="none" xmlns="http://www.w3.org/2000/svg">
<g id="Icon">
<path id="Vector" d="M16.2353 7.75776L14.4318 13.1672C14.3337 13.4617 14.1683 13.7293 13.9488 13.9488C13.7293 14.1683 13.4617 14.3337 13.1672 14.4318L7.75776 16.2353L9.56123 10.8259C9.65939 10.5314 9.82477 10.2638 10.0443 10.0443C10.2638 9.82477 10.5314 9.65939 10.8259 9.56123L16.2353 7.75776Z" stroke="var(--stroke-0, #D3E8E2)" stroke-width="1.99942" stroke-linecap="round" stroke-linejoin="round"/>
<path id="Vector_2" d="M11.9965 21.9936C17.5178 21.9936 21.9936 17.5178 21.9936 11.9965C21.9936 6.47528 17.5178 1.99942 11.9965 1.99942C6.47528 1.99942 1.99942 6.47528 1.99942 11.9965C1.99942 17.5178 6.47528 21.9936 11.9965 21.9936Z" stroke="var(--stroke-0, #D3E8E2)" stroke-width="1.99942" stroke-linecap="round" stroke-linejoin="round"/>
</g>
</svg>
