<svg preserveAspectRatio="none" width="100%" height="100%" overflow="visible" style="display: block;" viewBox="0 0 23.9931 23.9931" fill="none" xmlns="http://www.w3.org/2000/svg">
<g id="Icon">
<path id="Vector" d="M15.9954 20.9939V18.9945C15.9954 17.9339 15.5741 16.9168 14.8241 16.1669C14.0742 15.417 13.0571 14.9957 11.9965 14.9957H5.99826C4.93771 14.9957 3.92058 15.417 3.17066 16.1669C2.42073 16.9168 1.99942 17.9339 1.99942 18.9945V20.9939" stroke="var(--stroke-0, #E2A9C9)" stroke-width="1.99942" stroke-linecap="round" stroke-linejoin="round"/>
<path id="Vector_2" d="M8.9974 10.9968C11.2059 10.9968 12.9962 9.20648 12.9962 6.99797C12.9962 4.78947 11.2059 2.99913 8.9974 2.99913C6.7889 2.99913 4.99855 4.78947 4.99855 6.99797C4.99855 9.20648 6.7889 10.9968 8.9974 10.9968Z" stroke="var(--stroke-0, #E2A9C9)" stroke-width="1.99942" stroke-linecap="round" stroke-linejoin="round"/>
<path id="Vector_3" d="M21.9936 20.9939V18.9945C21.993 18.1085 21.6981 17.2478 21.1552 16.5475C20.6124 15.8473 19.8524 15.3471 18.9945 15.1256" stroke="var(--stroke-0, #E2A9C9)" stroke-width="1.99942" stroke-linecap="round" stroke-linejoin="round"/>
<path id="Vector_4" d="M15.9954 3.12909C16.8555 3.34933 17.6179 3.84959 18.1624 4.55099C18.7068 5.2524 19.0023 6.11506 19.0023 7.00297C19.0023 7.89089 18.7068 8.75355 18.1624 9.45495C17.6179 10.1564 16.8555 10.6566 15.9954 10.8769" stroke="var(--stroke-0, #E2A9C9)" stroke-width="1.99942" stroke-linecap="round" stroke-linejoin="round"/>
</g>
</svg>
